<svg width="1523" height="389" viewBox="0 0 1523 389" fill="none" xmlns="http://www.w3.org/2000/svg">
<g clip-path="url(#clip0_25_13)">
<path d="M85.4796 111.868C86.606 101.917 92.4484 92.4157 97.4982 85.5423L171.722 69.5449L258.135 106.021L207.276 339.781L203.432 355.764C179.333 349.699 160.291 319.465 158.514 294.781C156.084 261.038 124.984 202.916 111.576 166.314C66.5172 197.856 25.5086 161.12 10.3174 138.224C61.448 138.224 68.5824 114.309 85.4796 111.868Z" fill="white"/>
<path d="M263.903 103.029L212.162 340.844L212.15 340.896L212.138 340.95L207.111 361.847L202.211 360.613C188.609 357.19 176.922 347.123 168.509 335.125C160.071 323.091 154.489 308.508 153.526 295.14C152.379 279.206 144.344 256.97 134.549 233.549C125.922 212.921 115.927 191.378 109.093 173.866C86.8309 187.084 65.428 185.324 47.6729 177.233C28.8085 168.638 14.1036 152.974 6.15137 140.988L1 133.224H10.3174C34.9666 133.224 48.6307 127.497 58.1299 121.694C63.2319 118.578 66.6821 115.776 71.0068 112.867C74.0768 110.802 77.3434 108.882 81.0898 107.742C83.1641 97.8152 88.8717 88.8392 93.4688 82.582L94.5918 81.0537L172.212 64.3242L263.903 103.029ZM100.432 90.0244C95.8343 96.5198 91.3474 104.488 90.4482 112.431L90.0137 116.265L86.1943 116.816C83.0988 117.264 80.243 118.707 76.5879 121.165C73.2249 123.427 68.5276 127.061 63.3428 130.229C53.698 136.12 40.7207 141.604 20.04 142.923C27.6949 152.206 38.7429 162.175 51.8193 168.134C68.2128 175.604 87.8185 176.842 108.709 162.219L114.035 158.49L116.271 164.595C122.934 182.783 133.877 206.026 143.774 229.69C153.488 252.916 162.219 276.612 163.501 294.422C164.316 305.737 169.144 318.613 176.696 329.384C183.103 338.521 191.159 345.711 199.841 349.312L202.409 338.634L252.367 109.014L171.231 74.7646L100.432 90.0244Z" fill="white"/>
<path d="M411.082 111.868C409.955 101.917 404.113 92.4157 399.063 85.5423L324.839 69.5449L251.762 105.285L190.81 348.689C196.487 348.689 244.431 368.022 293.13 355.764C317.228 349.699 336.27 319.465 338.048 294.781C340.477 261.038 371.577 202.916 384.985 166.314C430.044 197.856 471.053 161.12 486.244 138.224C435.113 138.224 427.979 114.309 411.082 111.868Z" fill="white"/>
<path d="M248.453 99.9785L244.211 109.033L171.127 74.7871L100.432 90.0244C95.8343 96.5198 91.3474 104.488 90.4482 112.431L90.0137 116.265L86.1943 116.816C83.0988 117.264 80.243 118.707 76.5879 121.165C73.2249 123.427 68.5276 127.061 63.3428 130.229C53.698 136.12 40.7207 141.604 20.04 142.923C27.6949 152.206 38.7429 162.175 51.8193 168.134C68.2128 175.604 87.8185 176.842 108.709 162.219L114.035 158.49L116.271 164.595C122.934 182.783 133.877 206.026 143.774 229.69C153.488 252.916 162.219 276.612 163.501 294.422C164.315 305.732 169.214 318.816 176.853 329.803C184.521 340.833 194.478 349.087 204.942 351.721L202.502 361.418C188.868 357.986 177.109 347.688 168.643 335.511C160.146 323.29 154.489 308.513 153.526 295.14C152.379 279.206 144.344 256.97 134.549 233.549C125.922 212.921 115.927 191.378 109.093 173.866C86.8309 187.084 65.428 185.324 47.6729 177.233C28.8085 168.638 14.1036 152.974 6.15137 140.988L1 133.224H10.3174C34.9666 133.224 48.6307 127.497 58.1299 121.694C63.2319 118.578 66.6821 115.776 71.0068 112.867C74.0768 110.802 77.3434 108.882 81.0898 107.742C83.1641 97.8152 88.8717 88.8392 93.4688 82.582L94.5918 81.0537L172.317 64.3018L248.453 99.9785Z" fill="#333542"/>
<path d="M248.108 99.9785L252.35 109.033L325.364 74.8203L390.242 90.6807C391.479 92.1941 392.884 93.7134 394.254 95.1689C396.144 97.1772 398.018 99.1202 399.787 101.168C403.435 105.391 405.734 109.081 406.113 112.431L406.548 116.265L410.367 116.816C413.462 117.264 416.318 118.707 419.973 121.165C423.336 123.427 428.034 127.061 433.219 130.229C442.863 136.12 455.841 141.604 476.521 142.923C468.866 152.206 457.818 162.175 444.742 168.134C428.348 175.604 408.743 176.842 387.852 162.219L382.526 158.49L380.29 164.595C373.627 182.783 362.684 206.026 352.787 229.69C343.073 252.916 334.343 276.612 333.06 294.422C332.246 305.737 327.417 318.613 319.865 329.384C312.288 340.19 302.406 348.274 291.909 350.916C243.295 363.152 215.037 354.075 204.621 351.674L202.375 361.418C213.058 363.88 243.298 373.463 294.35 360.613C307.952 357.19 319.639 347.123 328.052 335.125C336.49 323.091 342.072 308.508 343.035 295.14C344.182 279.206 352.217 256.97 362.012 233.549C370.64 212.921 380.634 191.378 387.469 173.866C409.73 187.084 431.133 185.324 448.888 177.233C467.753 168.638 482.458 152.974 490.41 140.988L495.561 133.224H486.244C461.595 133.224 447.931 127.497 438.431 121.694C433.329 118.578 429.879 115.776 425.554 112.867C422.436 110.77 419.115 108.822 415.295 107.689C413.756 102.616 410.432 98.1935 407.353 94.6299C405.403 92.3729 403.313 90.2025 401.537 88.3154C399.69 86.3527 398.204 84.7177 397.145 83.2764L396.069 81.8115L324.313 64.2695L248.108 99.9785Z" fill="#333542"/>
<path d="M351.296 49.819C338.391 6.40915 301.678 13.5219 286.035 22.3212C281.269 39.5531 266.236 98.9483 264.037 111.414C288.601 108.481 294.834 98.5817 299.6 90.149C306.567 98.5817 324.825 102.615 334.798 96.7485C372.928 77.6834 382.987 83.2819 393.253 85.8484C390.32 43.6851 355.329 49.819 351.296 49.819Z" fill="white"/>
<path d="M283.583 17.9626C292.122 13.16 306.433 8.7421 320.672 11.5886C334.609 14.3747 347.621 23.9555 354.857 44.5886C356.109 44.5261 357.596 44.4847 359.249 44.5202C363.493 44.6116 368.964 45.2121 374.498 47.362C380.087 49.5334 385.716 53.2807 390.121 59.5593C394.508 65.8138 397.459 74.264 398.241 85.5007L398.719 92.3689L392.041 90.699C386.459 89.3035 382.397 87.5884 374.86 88.1716C367.227 88.7623 355.871 91.8103 337.132 101.171C330.722 104.847 322.37 105.161 315.096 103.715C310.05 102.711 304.918 100.741 300.75 97.8552C298.693 100.868 296.032 104.019 292.232 106.852C286.12 111.409 277.517 114.84 264.629 116.379L257.942 117.176L259.113 110.545C261.36 97.8108 276.455 38.1975 281.215 20.988L281.77 18.9831L283.583 17.9626ZM318.712 21.3943C308.363 19.3253 297.495 22.1522 290.289 25.7282C285.713 42.5731 274.651 86.2301 270.403 105.325C277.964 103.742 282.861 101.365 286.254 98.8347C290.591 95.6012 292.918 91.8089 295.248 87.6882L298.825 81.3591L303.456 86.9646C305.954 89.9886 311.034 92.711 317.047 93.907C323.062 95.1032 328.725 94.5187 332.262 92.4382L332.41 92.3523L332.561 92.2761C351.893 82.6103 364.606 78.9347 374.088 78.2009C379.507 77.7816 383.812 78.3551 387.376 79.1443C386.224 73.0606 384.244 68.596 381.934 65.3025C378.827 60.8728 374.906 58.2479 370.876 56.6823C362.415 53.395 354.284 54.819 351.296 54.8191H347.566L346.503 51.2439C340.517 31.1078 329.439 23.5386 318.712 21.3943Z" fill="#333542"/>
<path d="M133.951 58.0919C149.867 15.8894 184.192 23.2246 199.365 32.1675C230.552 -9.09484 269.693 7.47416 285.631 21.1009C279.384 46.293 267.993 98.5297 263.17 111.793C226.393 120.535 205.394 99.993 199.365 89.4424C182.182 102.103 173.742 101.199 138.774 86.7293C102.732 71.8155 92.0499 103.007 83.9108 109.338C77.8819 62.7945 114.96 56.3837 133.951 58.0919Z" fill="white"/>
<path d="M198.025 25.8017C213.926 6.56714 231.946 0.33209 248.435 1.0556C265.493 1.80404 280.29 9.95677 288.88 17.3007H288.881C288.972 17.379 289.064 17.4575 289.154 17.5361L285.988 21.1884L290.484 22.3046C287.368 34.8716 282.981 54.1297 278.731 72.0722C274.534 89.7938 270.406 106.526 267.869 113.502L266.948 116.034L264.326 116.658C229.495 124.938 207.458 108.645 198.066 96.4433C190.817 101.182 184.112 103.705 175.477 103.253C165.838 102.748 154.174 98.513 136.862 91.3495C128.512 87.8944 122.008 87.2592 116.88 88.0253C111.763 88.7899 107.611 91.0102 104.052 93.9316C100.438 96.898 97.5063 100.523 94.8358 104.054C93.5581 105.743 92.2286 107.56 91.0341 109.057C89.8488 110.541 88.4884 112.111 86.9803 113.284L80.076 118.655L78.952 109.98C77.3596 97.6872 78.5647 87.6497 81.8905 79.5546C85.231 71.4238 90.5893 65.5541 96.7889 61.4511C107.564 54.3197 120.766 52.5745 130.652 52.8876C139.208 32.7996 152.344 23.5841 166.02 21.0351C178.005 18.8014 189.706 21.8195 198.025 25.8017ZM247.997 11.0458C234.057 10.4342 218.013 15.7871 203.353 35.1826L200.666 38.7382L196.826 36.4745C189.942 32.4174 178.797 28.8254 167.852 30.8652C157.352 32.8224 146.065 40.1406 138.63 59.8564L137.288 63.412L133.503 63.0722C124.599 62.2714 111.882 63.4534 102.307 69.79C97.6175 72.894 93.6499 77.2474 91.1405 83.3554C89.6976 86.8676 88.6983 91.0576 88.3719 96.0536C90.8696 92.8629 93.9271 89.3046 97.7069 86.2021C102.341 82.3987 108.125 79.222 115.402 78.1347C122.668 77.0491 131.015 78.1077 140.685 82.1093C158.342 89.4153 168.383 92.8673 176.001 93.2665C182.963 93.6313 188.221 91.4433 196.399 85.4169L200.92 82.0859L203.706 86.9618C208.751 95.7902 226.86 114.046 259.33 107.517C261.681 100.055 265.23 85.6899 269.001 69.7675C272.883 53.3785 276.95 35.5752 280.015 23.0019C272.465 17.2919 260.86 11.6102 247.997 11.0458Z" fill="#333542"/>
<path d="M406.727 127.553C397.334 124.243 387.161 134.642 386.159 152.252C404.33 127.003 447.619 150.41 440.586 145.885C426.062 136.541 418.467 131.692 406.727 127.553Z" fill="#333542"/>
<path d="M86.5515 127.553C95.9441 124.243 106.117 134.642 107.119 152.252C88.9482 127.003 45.6591 150.41 52.6927 145.885C67.2167 136.541 74.8108 131.692 86.5515 127.553Z" fill="#333542"/>
<rect x="228.599" y="283.767" width="34.3196" height="103.984" rx="17.1598" fill="#D4217F"/>
<ellipse cx="213.055" cy="265.786" rx="37.9968" ry="60.8276" fill="white"/>
<ellipse cx="276.946" cy="274.511" rx="35.4637" ry="52.1024" fill="white"/>
<ellipse cx="245.758" cy="207.466" rx="35.4637" ry="52.1024" fill="white"/>
<path d="M276.685 252.656C279.171 252.656 281.185 254.671 281.185 257.156C281.185 259.642 279.171 261.656 276.685 261.656C265.316 261.656 258.344 266.763 254.493 273.786C250.497 281.075 249.684 290.827 251.856 299.874C254.037 308.956 259.004 316.468 265.561 319.941C271.789 323.24 280.547 323.457 291.913 315.737C293.969 314.341 296.767 314.876 298.164 316.932C299.56 318.988 299.026 321.786 296.971 323.183C283.571 332.284 271.223 333.125 261.349 327.896C251.806 322.841 245.675 312.675 243.105 301.976C240.527 291.241 241.311 279.109 246.601 269.459C252.038 259.543 262.043 252.656 276.685 252.656Z" fill="#333542"/>
<path d="M214.254 252.656C211.768 252.656 209.754 254.671 209.754 257.156C209.754 259.642 211.768 261.656 214.254 261.656C225.623 261.656 232.595 266.763 236.446 273.786C240.442 281.075 241.255 290.827 239.083 299.874C236.902 308.956 231.935 316.468 225.378 319.941C219.15 323.24 210.392 323.457 199.026 315.737C196.97 314.341 194.172 314.876 192.775 316.932C191.379 318.988 191.913 321.786 193.968 323.183C207.368 332.284 219.716 333.125 229.59 327.896C239.133 322.841 245.264 312.675 247.834 301.976C250.412 291.241 249.628 279.109 244.338 269.459C238.901 259.543 228.896 252.656 214.254 252.656Z" fill="#333542"/>
<path d="M286.483 26.9274C285.817 26.8719 278.587 22.0127 278.587 22.0127C270.894 51.361 253.287 108.241 257.504 107.785C261.721 107.329 270.647 105.481 275.839 103.924L294.475 23.9859C294.475 23.9859 287.149 26.9829 286.483 26.9274Z" fill="white"/>
<path d="M186.487 176.641C181.831 119.566 143.743 123.821 125.282 133.084C124.688 133.671 125.282 135.181 125.492 135.554C125.768 136.045 134.056 137.056 138.562 137.431C131.548 167.196 164.732 166.43 170.341 155.425C176.724 159.744 185.9 177.623 186.487 176.641Z" fill="#333542"/>
<path d="M306.791 176.641C311.447 119.566 349.535 123.821 367.997 133.084C368.59 133.671 367.997 135.181 367.787 135.554C367.51 136.045 359.222 137.056 354.716 137.431C361.73 167.196 328.547 166.43 322.937 155.425C316.554 159.744 307.378 177.623 306.791 176.641Z" fill="#333542"/>
<circle cx="338.666" cy="145.385" r="10.3638" fill="#D4217F"/>
<circle cx="341.266" cy="144.446" r="3.74356" fill="white"/>
<path d="M542.965 346.11V305.51H549.055L549.379 311.194C550.625 309.029 552.221 307.377 554.17 306.241C556.119 305.104 558.393 304.535 560.991 304.535C564.239 304.535 567 305.293 569.273 306.809C571.601 308.325 573.279 310.625 574.308 313.711C575.445 310.734 577.096 308.46 579.261 306.89C581.481 305.32 584.106 304.535 587.137 304.535C591.685 304.535 595.257 306.051 597.856 309.083C600.508 312.114 601.808 316.715 601.753 322.887V346.11H595.257V325.323C595.257 321.317 594.824 318.258 593.958 316.147C593.146 314.036 592.037 312.601 590.629 311.843C589.222 311.031 587.598 310.625 585.757 310.625C582.563 310.625 580.073 311.898 578.287 314.442C576.5 316.932 575.607 320.478 575.607 325.079V346.11H569.111V325.323C569.111 321.317 568.678 318.258 567.812 316.147C567 314.036 565.863 312.601 564.401 311.843C562.994 311.031 561.37 310.625 559.529 310.625C556.39 310.625 553.927 311.898 552.14 314.442C550.354 316.932 549.461 320.478 549.461 325.079V346.11H542.965ZM611.626 346.11V305.51H618.122V346.11H611.626ZM614.955 296.091C613.873 296.091 612.925 295.685 612.113 294.873C611.301 294.061 610.895 293.113 610.895 292.031C610.895 290.894 611.301 289.947 612.113 289.189C612.925 288.377 613.873 287.971 614.955 287.971C616.092 287.971 617.04 288.377 617.797 289.189C618.609 289.947 619.015 290.894 619.015 292.031C619.015 293.113 618.609 294.061 617.797 294.873C617.04 295.685 616.092 296.091 614.955 296.091ZM624.409 346.11L639.431 325.079L625.464 305.51H633.178L643.004 319.801L652.666 305.51H660.38L646.658 325.16L661.355 346.11H653.56L643.004 330.357L632.285 346.11H624.409ZM701.604 347.247C698.41 347.247 695.568 346.624 693.078 345.379C690.588 344.134 688.612 342.375 687.15 340.101C685.743 337.827 685.039 335.256 685.039 332.387C685.039 330.005 685.499 327.867 686.42 325.972C687.34 324.078 688.558 322.372 690.074 320.857C691.644 319.287 693.349 317.852 695.189 316.553L702.578 311.519C703.932 310.544 705.258 309.543 706.557 308.514C707.911 307.486 709.047 306.349 709.968 305.104C710.888 303.805 711.348 302.37 711.348 300.8C711.348 298.689 710.617 297.011 709.156 295.766C707.748 294.521 705.935 293.898 703.715 293.898C701.766 293.898 700.088 294.548 698.681 295.847C697.328 297.146 696.651 298.743 696.651 300.638C696.651 302.262 697.138 303.723 698.112 305.023C699.087 306.268 700.305 307.756 701.766 309.489L711.754 321.506L732.054 346.11H723.772L706.232 324.998L696.488 313.224C695.243 311.708 694.107 310.274 693.078 308.92C692.104 307.567 691.346 306.214 690.804 304.86C690.263 303.507 689.992 302.099 689.992 300.638C689.992 298.202 690.588 296.064 691.779 294.223C693.024 292.328 694.648 290.84 696.651 289.757C698.708 288.674 701.009 288.133 703.553 288.133C706.26 288.133 708.696 288.674 710.861 289.757C713.08 290.786 714.813 292.247 716.058 294.142C717.303 296.037 717.925 298.283 717.925 300.881C717.925 302.993 717.357 304.996 716.22 306.89C715.083 308.731 713.54 310.49 711.592 312.168C709.697 313.792 707.532 315.443 705.096 317.121L699.168 321.263C697.977 322.075 696.813 322.995 695.676 324.023C694.54 324.998 693.619 326.162 692.916 327.515C692.212 328.814 691.86 330.411 691.86 332.306C691.86 334.958 692.78 337.124 694.621 338.802C696.516 340.48 698.897 341.319 701.766 341.319C704.581 341.319 707.207 340.859 709.643 339.939C712.079 338.964 714.217 337.584 716.058 335.797C717.952 334.011 719.387 331.873 720.361 329.383C721.39 326.893 721.904 324.159 721.904 321.181H728.481C728.481 326.216 727.317 330.709 724.99 334.661C722.716 338.612 719.549 341.698 715.489 343.917C711.483 346.137 706.855 347.247 701.604 347.247ZM756.952 346.11V305.51H763.042L763.367 311.194C764.612 309.029 766.209 307.377 768.158 306.241C770.106 305.104 772.38 304.535 774.978 304.535C778.226 304.535 780.987 305.293 783.261 306.809C785.589 308.325 787.267 310.625 788.295 313.711C789.432 310.734 791.083 308.46 793.248 306.89C795.468 305.32 798.093 304.535 801.125 304.535C805.672 304.535 809.245 306.051 811.843 309.083C814.496 312.114 815.795 316.715 815.741 322.887V346.11H809.245V325.323C809.245 321.317 808.812 318.258 807.946 316.147C807.134 314.036 806.024 312.601 804.616 311.843C803.209 311.031 801.585 310.625 799.744 310.625C796.551 310.625 794.06 311.898 792.274 314.442C790.488 316.932 789.594 320.478 789.594 325.079V346.11H783.098V325.323C783.098 321.317 782.665 318.258 781.799 316.147C780.987 314.036 779.85 312.601 778.389 311.843C776.981 311.031 775.357 310.625 773.517 310.625C770.377 310.625 767.914 311.898 766.128 314.442C764.341 316.932 763.448 320.478 763.448 325.079V346.11H756.952ZM838.037 347.084C833.273 347.084 829.538 346.002 826.832 343.836C824.179 341.617 822.853 338.558 822.853 334.661C822.853 330.547 824.206 327.407 826.913 325.241C829.674 323.022 833.517 321.912 838.443 321.912H849.73C849.459 318.069 848.512 315.2 846.888 313.305C845.264 311.356 842.828 310.382 839.58 310.382C837.361 310.382 835.439 310.842 833.815 311.762C832.245 312.628 830.946 314.036 829.917 315.985L824.071 313.711C825.099 311.816 826.344 310.192 827.806 308.839C829.268 307.432 830.973 306.376 832.922 305.672C834.87 304.914 837.09 304.535 839.58 304.535C843.369 304.535 846.482 305.293 848.918 306.809C851.408 308.271 853.276 310.463 854.521 313.386C855.766 316.255 856.361 319.828 856.307 324.105L856.226 346.11H850.217L849.892 340.669C848.701 342.727 847.105 344.323 845.102 345.46C843.099 346.543 840.744 347.084 838.037 347.084ZM838.362 341.4C840.69 341.4 842.72 340.913 844.452 339.939C846.184 338.91 847.511 337.476 848.431 335.635C849.405 333.795 849.892 331.575 849.892 328.977V327.353H839.905C836.115 327.353 833.409 327.975 831.785 329.22C830.215 330.465 829.43 332.252 829.43 334.579C829.43 336.691 830.215 338.369 831.785 339.614C833.355 340.805 835.547 341.4 838.362 341.4ZM879.999 347.084C877.021 347.084 874.423 346.651 872.203 345.785C869.984 344.865 868.116 343.674 866.601 342.212C865.139 340.751 864.083 339.154 863.434 337.421L869.118 335.067C870.038 336.907 871.418 338.396 873.259 339.533C875.099 340.669 877.129 341.238 879.349 341.238C881.893 341.238 884.031 340.751 885.764 339.776C887.496 338.748 888.362 337.313 888.362 335.473C888.362 333.795 887.713 332.441 886.413 331.413C885.168 330.384 883.301 329.545 880.811 328.895L876.913 327.84C873.232 326.865 870.363 325.404 868.306 323.455C866.249 321.452 865.22 319.206 865.22 316.715C865.22 312.872 866.465 309.895 868.955 307.783C871.5 305.618 875.262 304.535 880.242 304.535C882.624 304.535 884.789 304.887 886.738 305.591C888.687 306.295 890.365 307.296 891.773 308.595C893.18 309.841 894.209 311.329 894.858 313.061L889.174 315.579C888.47 313.738 887.307 312.412 885.683 311.6C884.059 310.788 882.083 310.382 879.755 310.382C877.265 310.382 875.316 310.923 873.909 312.006C872.501 313.034 871.797 314.496 871.797 316.391C871.797 317.473 872.366 318.502 873.503 319.476C874.693 320.397 876.426 321.154 878.699 321.75L882.759 322.805C885.412 323.455 887.631 324.429 889.418 325.729C891.204 326.974 892.557 328.408 893.478 330.032C894.398 331.656 894.858 333.389 894.858 335.229C894.858 337.665 894.209 339.776 892.909 341.563C891.61 343.349 889.851 344.729 887.631 345.704C885.412 346.624 882.868 347.084 879.999 347.084ZM918.067 347.084C914.115 347.084 911.056 346.056 908.891 343.999C906.726 341.942 905.643 339.045 905.643 335.31V311.275H898.579V305.51H905.643V292.843H912.139V305.51H924.319V311.275H912.139V334.661C912.139 336.718 912.68 338.315 913.763 339.451C914.9 340.534 916.47 341.075 918.473 341.075C919.122 341.075 919.745 340.994 920.34 340.832C920.99 340.615 921.829 340.128 922.858 339.37L925.375 344.648C923.967 345.569 922.695 346.191 921.558 346.516C920.422 346.895 919.258 347.084 918.067 347.084ZM950.222 347.084C946.27 347.084 942.779 346.191 939.747 344.405C936.716 342.564 934.334 340.047 932.602 336.853C930.923 333.659 930.084 329.978 930.084 325.81C930.084 321.642 930.923 317.961 932.602 314.767C934.334 311.573 936.689 309.083 939.666 307.296C942.697 305.456 946.162 304.535 950.06 304.535C953.849 304.535 957.124 305.483 959.885 307.377C962.646 309.218 964.784 311.816 966.3 315.173C967.815 318.529 968.573 322.481 968.573 327.028H936.662C936.932 331.467 938.34 334.931 940.884 337.421C943.428 339.912 946.649 341.157 950.547 341.157C953.416 341.157 955.825 340.48 957.774 339.127C959.776 337.773 961.319 335.987 962.402 333.767L968.005 336.609C966.976 338.721 965.596 340.561 963.864 342.131C962.185 343.701 960.182 344.919 957.855 345.785C955.581 346.651 953.037 347.084 950.222 347.084ZM937.149 321.587H961.59C961.428 319.26 960.805 317.257 959.722 315.579C958.694 313.901 957.34 312.601 955.662 311.681C953.984 310.761 952.09 310.301 949.978 310.301C947.921 310.301 945.945 310.761 944.051 311.681C942.156 312.547 940.586 313.846 939.341 315.579C938.096 317.257 937.365 319.26 937.149 321.587ZM975.954 346.11V305.51H982.45V312.737C984.074 310.192 986.158 308.325 988.703 307.134C991.301 305.943 994.008 305.347 996.823 305.347V311.437C994.441 311.437 992.14 311.843 989.921 312.655C987.755 313.413 985.969 314.685 984.561 316.472C983.154 318.258 982.45 320.694 982.45 323.78V346.11H975.954ZM1002.98 346.11V305.51H1009.48V346.11H1002.98ZM1006.31 296.091C1005.23 296.091 1004.28 295.685 1003.47 294.873C1002.66 294.061 1002.25 293.113 1002.25 292.031C1002.25 290.894 1002.66 289.947 1003.47 289.189C1004.28 288.377 1005.23 287.971 1006.31 287.971C1007.45 287.971 1008.4 288.377 1009.16 289.189C1009.97 289.947 1010.37 290.894 1010.37 292.031C1010.37 293.113 1009.97 294.061 1009.16 294.873C1008.4 295.685 1007.45 296.091 1006.31 296.091ZM1020.64 346.11V305.51H1026.73L1027.05 311.6C1028.41 309.326 1030.17 307.594 1032.33 306.403C1034.5 305.158 1037.01 304.535 1039.88 304.535C1043.08 304.535 1045.84 305.185 1048.17 306.484C1050.55 307.729 1052.39 309.732 1053.69 312.493C1055.04 315.254 1055.69 318.881 1055.64 323.374V346.11H1049.14V325.323C1049.14 321.317 1048.68 318.258 1047.76 316.147C1046.84 314.036 1045.57 312.601 1043.94 311.843C1042.32 311.031 1040.48 310.625 1038.42 310.625C1034.85 310.625 1032.06 311.898 1030.06 314.442C1028.11 316.932 1027.14 320.478 1027.14 325.079V346.11H1020.64ZM1081.35 363.324C1078.75 363.324 1076.37 363.054 1074.2 362.512C1072.09 362.025 1070.28 361.457 1068.76 360.807C1067.3 360.212 1066.24 359.697 1065.59 359.264L1068.03 353.986C1068.73 354.365 1069.73 354.825 1071.03 355.367C1072.33 355.962 1073.85 356.449 1075.58 356.828C1077.37 357.261 1079.26 357.478 1081.26 357.478C1083.86 357.478 1086.19 356.937 1088.25 355.854C1090.36 354.825 1091.98 353.174 1093.12 350.901C1094.31 348.681 1094.91 345.812 1094.91 342.293V337.99C1093.44 340.426 1091.52 342.348 1089.14 343.755C1086.76 345.108 1084.08 345.785 1081.1 345.785C1077.48 345.785 1074.28 344.919 1071.52 343.187C1068.76 341.454 1066.59 339.045 1065.02 335.96C1063.51 332.82 1062.75 329.247 1062.75 325.241C1062.75 321.127 1063.51 317.527 1065.02 314.442C1066.59 311.302 1068.76 308.866 1071.52 307.134C1074.28 305.402 1077.48 304.535 1081.1 304.535C1084.08 304.535 1086.76 305.212 1089.14 306.565C1091.52 307.919 1093.44 309.841 1094.91 312.331V305.51H1101.4V342.212C1101.4 346.868 1100.54 350.765 1098.8 353.905C1097.07 357.045 1094.69 359.4 1091.66 360.969C1088.63 362.539 1085.19 363.324 1081.35 363.324ZM1082.65 340.182C1085.03 340.182 1087.14 339.533 1088.98 338.233C1090.82 336.934 1092.25 335.175 1093.28 332.955C1094.31 330.682 1094.83 328.056 1094.83 325.079C1094.83 322.21 1094.28 319.666 1093.2 317.446C1092.17 315.173 1090.74 313.413 1088.9 312.168C1087.11 310.869 1085 310.219 1082.56 310.219C1080.02 310.219 1077.75 310.869 1075.74 312.168C1073.79 313.413 1072.25 315.173 1071.11 317.446C1070.03 319.666 1069.49 322.21 1069.49 325.079C1069.49 328.056 1070.06 330.682 1071.2 332.955C1072.33 335.175 1073.88 336.934 1075.82 338.233C1077.83 339.533 1080.1 340.182 1082.65 340.182ZM1149.31 347.084C1145.3 347.084 1141.76 346.191 1138.67 344.405C1135.59 342.564 1133.18 340.047 1131.45 336.853C1129.71 333.659 1128.85 329.978 1128.85 325.81C1128.85 321.642 1129.69 317.961 1131.36 314.767C1133.1 311.573 1135.51 309.083 1138.59 307.296C1141.68 305.456 1145.19 304.535 1149.15 304.535C1153.04 304.535 1156.54 305.429 1159.62 307.215C1162.71 309.001 1165.06 311.519 1166.69 314.767L1160.76 317.446C1159.68 315.281 1158.11 313.603 1156.05 312.412C1153.99 311.167 1151.64 310.544 1148.98 310.544C1146.33 310.544 1143.98 311.194 1141.92 312.493C1139.92 313.792 1138.32 315.606 1137.13 317.933C1135.99 320.207 1135.42 322.833 1135.42 325.81C1135.42 328.787 1135.99 331.44 1137.13 333.767C1138.32 336.041 1139.94 337.827 1142 339.127C1144.11 340.426 1146.49 341.075 1149.15 341.075C1151.8 341.075 1154.15 340.399 1156.21 339.045C1158.32 337.692 1159.92 335.797 1161 333.361L1166.93 336.041C1165.31 339.506 1162.95 342.212 1159.87 344.161C1156.78 346.11 1153.26 347.084 1149.31 347.084ZM1192.27 347.084C1188.31 347.084 1184.79 346.191 1181.71 344.405C1178.68 342.564 1176.3 340.047 1174.56 336.853C1172.83 333.659 1171.97 329.978 1171.97 325.81C1171.97 321.642 1172.8 317.961 1174.48 314.767C1176.21 311.573 1178.6 309.083 1181.63 307.296C1184.71 305.456 1188.21 304.535 1192.1 304.535C1196.11 304.535 1199.63 305.456 1202.66 307.296C1205.74 309.083 1208.13 311.573 1209.8 314.767C1211.54 317.961 1212.4 321.642 1212.4 325.81C1212.4 329.978 1211.54 333.659 1209.8 336.853C1208.13 340.047 1205.77 342.564 1202.74 344.405C1199.71 346.191 1196.22 347.084 1192.27 347.084ZM1192.27 341.075C1194.97 341.075 1197.33 340.426 1199.33 339.127C1201.33 337.827 1202.9 336.041 1204.04 333.767C1205.23 331.494 1205.83 328.841 1205.83 325.81C1205.83 322.778 1205.23 320.126 1204.04 317.852C1202.9 315.579 1201.31 313.792 1199.25 312.493C1197.19 311.194 1194.81 310.544 1192.1 310.544C1189.45 310.544 1187.1 311.194 1185.04 312.493C1183.04 313.792 1181.44 315.579 1180.25 317.852C1179.11 320.126 1178.54 322.778 1178.54 325.81C1178.54 328.787 1179.11 331.44 1180.25 333.767C1181.44 336.041 1183.06 337.827 1185.12 339.127C1187.23 340.426 1189.61 341.075 1192.27 341.075ZM1220.61 346.11V305.51H1226.7L1227.03 311.194C1228.27 309.029 1229.87 307.377 1231.82 306.241C1233.76 305.104 1236.04 304.535 1238.64 304.535C1241.88 304.535 1244.65 305.293 1246.92 306.809C1249.25 308.325 1250.92 310.625 1251.95 313.711C1253.09 310.734 1254.74 308.46 1256.91 306.89C1259.13 305.32 1261.75 304.535 1264.78 304.535C1269.33 304.535 1272.9 306.051 1275.5 309.083C1278.15 312.114 1279.45 316.715 1279.4 322.887V346.11H1272.9V325.323C1272.9 321.317 1272.47 318.258 1271.6 316.147C1270.79 314.036 1269.68 312.601 1268.27 311.843C1266.87 311.031 1265.24 310.625 1263.4 310.625C1260.21 310.625 1257.72 311.898 1255.93 314.442C1254.15 316.932 1253.25 320.478 1253.25 325.079V346.11H1246.76V325.323C1246.76 321.317 1246.32 318.258 1245.46 316.147C1244.65 314.036 1243.51 312.601 1242.05 311.843C1240.64 311.031 1239.02 310.625 1237.18 310.625C1234.04 310.625 1231.57 311.898 1229.79 314.442C1228 316.932 1227.11 320.478 1227.11 325.079V346.11H1220.61ZM1289.27 362.35V305.51H1295.36L1295.69 312.412C1297.2 309.976 1299.12 308.054 1301.45 306.647C1303.83 305.239 1306.51 304.535 1309.49 304.535C1313.12 304.535 1316.31 305.429 1319.07 307.215C1321.83 309.001 1323.97 311.492 1325.49 314.685C1327.06 317.879 1327.84 321.587 1327.84 325.81C1327.84 329.978 1327.06 333.686 1325.49 336.934C1323.97 340.128 1321.83 342.618 1319.07 344.405C1316.31 346.191 1313.12 347.084 1309.49 347.084C1306.51 347.084 1303.86 346.408 1301.53 345.054C1299.21 343.647 1297.28 341.725 1295.77 339.289V362.35H1289.27ZM1308.03 341.157C1310.57 341.157 1312.82 340.507 1314.77 339.208C1316.77 337.909 1318.34 336.095 1319.48 333.767C1320.67 331.44 1321.26 328.787 1321.26 325.81C1321.26 322.833 1320.7 320.18 1319.56 317.852C1318.48 315.525 1316.93 313.711 1314.93 312.412C1312.93 311.113 1310.65 310.463 1308.11 310.463C1305.73 310.463 1303.59 311.113 1301.7 312.412C1299.85 313.711 1298.39 315.525 1297.31 317.852C1296.28 320.18 1295.77 322.833 1295.77 325.81C1295.77 328.787 1296.28 331.44 1297.31 333.767C1298.39 336.095 1299.85 337.909 1301.7 339.208C1303.54 340.507 1305.65 341.157 1308.03 341.157ZM1348.86 347.084C1344.09 347.084 1340.36 346.002 1337.65 343.836C1335 341.617 1333.67 338.558 1333.67 334.661C1333.67 330.547 1335.03 327.407 1337.73 325.241C1340.49 323.022 1344.34 321.912 1349.26 321.912H1360.55C1360.28 318.069 1359.33 315.2 1357.71 313.305C1356.08 311.356 1353.65 310.382 1350.4 310.382C1348.18 310.382 1346.26 310.842 1344.64 311.762C1343.07 312.628 1341.77 314.036 1340.74 315.985L1334.89 313.711C1335.92 311.816 1337.17 310.192 1338.63 308.839C1340.09 307.432 1341.79 306.376 1343.74 305.672C1345.69 304.914 1347.91 304.535 1350.4 304.535C1354.19 304.535 1357.3 305.293 1359.74 306.809C1362.23 308.271 1364.1 310.463 1365.34 313.386C1366.59 316.255 1367.18 319.828 1367.13 324.105L1367.05 346.11H1361.04L1360.71 340.669C1359.52 342.727 1357.93 344.323 1355.92 345.46C1353.92 346.543 1351.56 347.084 1348.86 347.084ZM1349.18 341.4C1351.51 341.4 1353.54 340.913 1355.27 339.939C1357.01 338.91 1358.33 337.476 1359.25 335.635C1360.23 333.795 1360.71 331.575 1360.71 328.977V327.353H1350.73C1346.94 327.353 1344.23 327.975 1342.61 329.22C1341.04 330.465 1340.25 332.252 1340.25 334.579C1340.25 336.691 1341.04 338.369 1342.61 339.614C1344.18 340.805 1346.37 341.4 1349.18 341.4ZM1376.61 346.11V305.51H1382.7L1383.02 311.6C1384.38 309.326 1386.14 307.594 1388.3 306.403C1390.47 305.158 1392.98 304.535 1395.85 304.535C1399.05 304.535 1401.81 305.185 1404.14 306.484C1406.52 307.729 1408.36 309.732 1409.66 312.493C1411.01 315.254 1411.66 318.881 1411.61 323.374V346.11H1405.11V325.323C1405.11 321.317 1404.65 318.258 1403.73 316.147C1402.81 314.036 1401.54 312.601 1399.91 311.843C1398.29 311.031 1396.45 310.625 1394.39 310.625C1390.82 310.625 1388.03 311.898 1386.03 314.442C1384.08 316.932 1383.11 320.478 1383.11 325.079V346.11H1376.61ZM1421.48 346.11V305.51H1427.98V346.11H1421.48ZM1424.81 296.091C1423.73 296.091 1422.78 295.685 1421.97 294.873C1421.16 294.061 1420.75 293.113 1420.75 292.031C1420.75 290.894 1421.16 289.947 1421.97 289.189C1422.78 288.377 1423.73 287.971 1424.81 287.971C1425.95 287.971 1426.9 288.377 1427.65 289.189C1428.47 289.947 1428.87 290.894 1428.87 292.031C1428.87 293.113 1428.47 294.061 1427.65 294.873C1426.9 295.685 1425.95 296.091 1424.81 296.091ZM1457.08 347.084C1453.13 347.084 1449.61 346.191 1446.53 344.405C1443.49 342.564 1441.11 340.047 1439.38 336.853C1437.65 333.659 1436.78 329.978 1436.78 325.81C1436.78 321.642 1437.62 317.961 1439.3 314.767C1441.03 311.573 1443.41 309.083 1446.44 307.296C1449.53 305.456 1453.02 304.535 1456.92 304.535C1460.93 304.535 1464.44 305.456 1467.48 307.296C1470.56 309.083 1472.94 311.573 1474.62 314.767C1476.35 317.961 1477.22 321.642 1477.22 325.81C1477.22 329.978 1476.35 333.659 1474.62 336.853C1472.94 340.047 1470.59 342.564 1467.56 344.405C1464.53 346.191 1461.03 347.084 1457.08 347.084ZM1457.08 341.075C1459.79 341.075 1462.14 340.426 1464.15 339.127C1466.15 337.827 1467.72 336.041 1468.86 333.767C1470.05 331.494 1470.64 328.841 1470.64 325.81C1470.64 322.778 1470.05 320.126 1468.86 317.852C1467.72 315.579 1466.12 313.792 1464.07 312.493C1462.01 311.194 1459.63 310.544 1456.92 310.544C1454.27 310.544 1451.91 311.194 1449.86 312.493C1447.85 313.792 1446.26 315.579 1445.06 317.852C1443.93 320.126 1443.36 322.778 1443.36 325.81C1443.36 328.787 1443.93 331.44 1445.06 333.767C1446.26 336.041 1447.88 337.827 1449.94 339.127C1452.05 340.426 1454.43 341.075 1457.08 341.075ZM1485.43 346.11V305.51H1491.52L1491.84 311.6C1493.2 309.326 1494.95 307.594 1497.12 306.403C1499.29 305.158 1501.8 304.535 1504.67 304.535C1507.87 304.535 1510.63 305.185 1512.95 306.484C1515.34 307.729 1517.18 309.732 1518.48 312.493C1519.83 315.254 1520.48 318.881 1520.42 323.374V346.11H1513.93V325.323C1513.93 321.317 1513.47 318.258 1512.55 316.147C1511.63 314.036 1510.36 312.601 1508.73 311.843C1507.11 311.031 1505.27 310.625 1503.21 310.625C1499.64 310.625 1496.85 311.898 1494.85 314.442C1492.9 316.932 1491.92 320.478 1491.92 325.079V346.11H1485.43Z" fill="#FFD459"/>
<path d="M577.382 23.1099H630.033C668.425 23.1099 700.235 54.9187 700.235 93.3086C700.235 110.858 693.654 126.214 683.782 138.828C704.074 150.894 717.786 173.379 717.786 198.607C717.786 237.545 685.975 268.806 647.584 268.806H577.382C557.637 268.806 542.281 253.45 542.281 233.706V58.2092C542.281 39.0143 557.637 23.1099 577.382 23.1099ZM630.033 128.408C649.229 128.408 665.134 113.052 665.134 93.3086C665.134 74.1136 649.229 58.2092 630.033 58.2092H577.382V128.408H630.033ZM577.382 163.507V233.706H647.584C666.779 233.706 682.685 218.35 682.685 198.607C682.685 179.412 666.779 163.507 647.584 163.507H577.382Z" fill="white"/>
<path d="M951.081 23.1099H1012.51C1055.84 23.1099 1091.48 58.7577 1091.48 102.083C1091.48 135.538 1070.64 164.056 1042.12 175.573L1088.19 241.384C1093.68 249.611 1091.48 260.579 1083.81 266.063C1075.58 271.548 1064.61 269.354 1059.13 261.676L1003.18 181.057H951.081V251.256C951.081 261.128 942.854 268.806 933.53 268.806C923.658 268.806 915.979 261.128 915.979 251.256V58.2092C915.979 39.0143 931.336 23.1099 951.081 23.1099ZM1012.51 145.958C1036.64 145.958 1056.38 126.763 1056.38 102.083C1056.38 77.9526 1036.64 58.2092 1012.51 58.2092H951.081V145.958H1012.51Z" fill="white"/>
<path d="M1149.05 23.1099H1210.48C1253.8 23.1099 1289.45 58.7577 1289.45 102.083C1289.45 135.538 1268.61 164.056 1240.09 175.573L1286.16 241.384C1291.65 249.611 1289.45 260.579 1281.78 266.063C1273.55 271.548 1262.58 269.354 1257.1 261.676L1201.15 181.057H1149.05V251.256C1149.05 261.128 1140.82 268.806 1131.5 268.806C1121.63 268.806 1113.95 261.128 1113.95 251.256V58.2092C1113.95 39.0143 1129.31 23.1099 1149.05 23.1099ZM1210.48 145.958C1234.61 145.958 1254.35 126.763 1254.35 102.083C1254.35 77.9526 1234.61 58.2092 1210.48 58.2092H1149.05V145.958H1210.48Z" fill="white"/>
<path d="M1343.73 30.7879L1417.22 133.344L1490.71 30.7879C1496.2 22.5614 1507.17 20.9162 1514.85 26.4004C1522.52 32.4331 1524.72 43.4017 1519.23 51.0797L1434.77 169.54V251.256C1434.77 261.128 1426.55 268.806 1417.22 268.806C1407.35 268.806 1399.67 261.128 1399.67 251.256V169.54L1315.21 51.0797C1309.18 43.4017 1311.37 32.4331 1319.05 26.4004C1326.73 20.9162 1337.7 22.5614 1343.73 30.7879Z" fill="white"/>
<path fill-rule="evenodd" clip-rule="evenodd" d="M759.293 24.4715C764.248 24.4715 769.203 27.7746 771.267 32.7292L837.332 191.277C840.222 197.883 836.919 205.728 830.312 208.618C823.293 211.508 815.861 208.205 812.97 201.599L799.757 169.807H720.633C716.538 159.226 709.667 150.027 700.914 143.103L746.906 32.7292C748.97 27.7746 753.925 24.4715 759.293 24.4715ZM729.564 143.382H789.022L759.293 72.3662L729.564 143.382Z" fill="#D4217F"/>
<path d="M820.953 24.9115C824.957 24.9115 828.961 27.5807 830.629 31.5844L884.015 159.704C886.35 165.042 883.681 171.381 878.343 173.717C872.67 176.052 866.665 173.383 864.329 168.045L853.652 142.354H825.423L816.235 121.001H844.977L820.953 63.6143L806.449 98.258L794.619 70.7605L810.943 31.5844C812.612 27.5807 816.616 24.9115 820.953 24.9115Z" fill="#1ECEAB"/>
<path d="M877.008 24.1108C880.511 24.1108 884.015 26.4463 885.475 29.9496L908.831 86.0018V103.77V119.682V125.127V133.118L905.619 126.873H879.41L871.371 108.189H898.029L877.008 57.9757L863.574 90.066L853.223 66.0092L868.249 29.9496C869.709 26.4463 873.213 24.1108 877.008 24.1108Z" fill="#FFD45A"/>
</g>
<defs>
<clipPath id="clip0_25_13">
<rect width="1523" height="389" fill="white"/>
</clipPath>
</defs>
</svg>
