<svg width="500" height="500" viewBox="0 0 500 500" fill="none" xmlns="http://www.w3.org/2000/svg">
<path d="M87.1989 176.758C88.3254 166.808 94.1678 157.306 99.2176 150.433L173.442 134.435L259.855 170.912L208.996 404.671L205.151 420.655C181.053 414.589 162.01 384.355 160.233 359.671C157.804 325.928 126.703 267.806 113.296 231.205C68.2365 262.746 27.228 226.01 12.0367 203.114C63.1674 203.114 70.3017 179.199 87.1989 176.758Z" fill="white"/>
<path d="M265.623 167.92L213.881 405.734L213.87 405.787L213.857 405.841L208.831 426.737L203.93 425.504C190.329 422.08 178.641 412.014 170.228 400.015C161.79 387.981 156.208 373.399 155.246 360.03C154.098 344.097 146.064 321.86 136.268 298.439C127.641 277.811 117.647 256.268 110.812 238.757C88.5503 251.975 67.1474 250.214 49.3922 242.124C30.5278 233.528 15.823 217.864 7.87073 205.879L2.71936 198.114H12.0367C36.6859 198.114 50.3501 192.387 59.8492 186.585C64.9512 183.468 68.4015 180.666 72.7262 177.758C75.7962 175.693 79.0628 173.773 82.8092 172.633C84.8835 162.706 90.591 153.73 95.1881 147.472L96.3112 145.944L173.931 129.215L265.623 167.92ZM102.151 154.915C97.5537 161.41 93.0668 169.379 92.1676 177.321L91.733 181.155L87.9137 181.707C84.8182 182.154 81.9624 183.597 78.3073 186.055C74.9442 188.317 70.247 191.952 65.0621 195.119C55.4174 201.01 42.44 206.495 21.7594 207.813C29.4142 217.096 40.4622 227.066 53.5387 233.024C69.9322 240.494 89.5379 241.732 110.428 227.109L115.755 223.381L117.991 229.485C124.653 247.673 135.596 270.916 145.494 294.581C155.208 317.807 163.938 341.502 165.22 359.312C166.035 370.627 170.864 383.504 178.416 394.274C184.823 403.412 192.879 410.602 201.56 414.202L204.129 403.524L254.087 173.904L172.951 139.655L102.151 154.915Z" fill="white"/>
<path d="M412.801 176.758C411.675 166.808 405.832 157.306 400.782 150.433L326.558 134.435L253.482 170.176L192.529 413.58C198.207 413.58 246.15 432.912 294.849 420.655C318.947 414.589 337.99 384.355 339.767 359.671C342.196 325.928 373.297 267.806 386.704 231.205C431.763 262.746 472.772 226.01 487.963 203.114C436.833 203.114 429.698 179.199 412.801 176.758Z" fill="white"/>
<path d="M250.172 164.869L245.93 173.924L172.846 139.678L102.151 154.915C97.5537 161.41 93.0668 169.379 92.1676 177.321L91.733 181.155L87.9137 181.707C84.8182 182.154 81.9624 183.597 78.3073 186.055C74.9442 188.317 70.247 191.952 65.0621 195.119C55.4174 201.01 42.44 206.495 21.7594 207.813C29.4142 217.096 40.4622 227.066 53.5387 233.024C69.9322 240.494 89.5379 241.732 110.428 227.109L115.755 223.381L117.991 229.485C124.653 247.673 135.596 270.916 145.494 294.581C155.208 317.807 163.938 341.502 165.22 359.312C166.035 370.622 170.933 383.707 178.572 394.693C186.241 405.723 196.197 413.977 206.662 416.611L204.221 426.308C190.587 422.877 178.828 412.578 170.362 400.401C161.865 388.181 156.209 373.404 155.246 360.03C154.098 344.097 146.064 321.86 136.268 298.439C127.641 277.811 117.647 256.268 110.812 238.757C88.5503 251.975 67.1474 250.214 49.3922 242.124C30.5278 233.528 15.823 217.864 7.87073 205.879L2.71936 198.114H12.0367C36.6859 198.114 50.3501 192.387 59.8492 186.585C64.9512 183.468 68.4015 180.666 72.7262 177.758C75.7962 175.693 79.0628 173.773 82.8092 172.633C84.8835 162.706 90.5911 153.73 95.1881 147.472L96.3112 145.944L174.037 129.192L250.172 164.869Z" fill="#333542"/>
<path d="M249.828 164.869L254.07 173.924L327.083 139.711L391.961 155.571C393.198 157.084 394.603 158.604 395.973 160.059C397.863 162.068 399.737 164.011 401.506 166.058C405.155 170.281 407.453 173.971 407.832 177.321L408.267 181.155L412.086 181.707C415.182 182.154 418.038 183.597 421.693 186.055C425.056 188.317 429.753 191.952 434.938 195.119C444.583 201.01 457.56 206.495 478.241 207.813C470.586 217.096 459.538 227.066 446.461 233.024C430.068 240.494 410.462 241.732 389.572 227.109L384.245 223.381L382.009 229.485C375.347 247.673 364.404 270.916 354.506 294.581C344.792 317.807 336.062 341.502 334.78 359.312C333.965 370.627 329.136 383.504 321.584 394.274C314.007 405.08 304.125 413.164 293.628 415.806C245.015 428.042 216.757 418.965 206.34 416.564L204.094 426.308C214.777 428.771 245.017 438.354 296.07 425.504C309.671 422.08 321.359 412.014 329.772 400.015C338.21 387.981 343.792 373.399 344.754 360.03C345.902 344.097 353.936 321.86 363.732 298.439C372.359 277.811 382.353 256.268 389.188 238.757C411.45 251.975 432.853 250.214 450.608 242.124C469.472 233.528 484.177 217.864 492.129 205.879L497.281 198.114H487.963C463.314 198.114 449.65 192.387 440.151 186.585C435.049 183.468 431.598 180.666 427.274 177.758C424.156 175.66 420.835 173.713 417.014 172.58C415.475 167.507 412.152 163.084 409.073 159.52C407.123 157.263 405.032 155.093 403.256 153.206C401.409 151.243 399.924 149.608 398.865 148.167L397.788 146.702L326.033 129.16L249.828 164.869Z" fill="#333542"/>
<path d="M353.015 114.709C340.11 71.299 303.397 78.4117 287.754 87.211C282.988 104.443 267.956 163.838 265.756 176.304C290.321 173.371 296.553 163.472 301.32 155.039C308.286 163.472 326.544 167.505 336.517 161.638C374.647 142.573 384.707 148.172 394.973 150.738C392.039 108.575 357.048 114.709 353.015 114.709Z" fill="white"/>
<path d="M285.303 82.8527C293.841 78.0501 308.152 73.6322 322.392 76.4787C336.329 79.2648 349.341 88.8456 356.576 109.479C357.828 109.416 359.316 109.375 360.968 109.41C365.212 109.502 370.683 110.102 376.217 112.252C381.806 114.424 387.436 118.171 391.84 124.449C396.227 130.704 399.178 139.154 399.96 150.391L400.439 157.259L393.76 155.589C388.178 154.194 384.117 152.478 376.579 153.062C368.946 153.652 357.591 156.7 338.852 166.061C332.441 169.738 324.089 170.051 316.816 168.605C311.769 167.601 306.637 165.631 302.47 162.745C300.413 165.758 297.751 168.909 293.951 171.742C287.84 176.299 279.236 179.73 266.349 181.269L259.661 182.067L260.832 175.435C263.079 162.701 278.175 103.088 282.935 85.8781L283.489 83.8732L285.303 82.8527ZM320.432 86.2844C310.082 84.2154 299.214 87.0423 292.008 90.6183C287.433 107.463 276.37 151.12 272.122 170.215C279.683 168.632 284.581 166.255 287.974 163.725C292.31 160.491 294.638 156.699 296.967 152.578L300.544 146.249L305.175 151.855C307.673 154.879 312.754 157.601 318.767 158.797C324.781 159.993 330.445 159.409 333.982 157.328L334.129 157.242L334.28 157.166C353.612 147.5 366.325 143.825 375.808 143.091C381.226 142.672 385.531 143.245 389.096 144.034C387.943 137.951 385.964 133.486 383.653 130.193C380.546 125.763 376.625 123.138 372.596 121.572C364.134 118.285 356.003 119.709 353.016 119.709H349.285L348.223 116.134C342.236 95.9978 331.158 88.4287 320.432 86.2844Z" fill="#333542"/>
<path d="M135.67 122.982C151.587 80.7794 185.911 88.1146 201.084 97.0575C232.271 55.7952 271.412 72.3642 287.35 85.9909C281.103 111.183 269.712 163.42 264.889 176.683C228.112 185.425 207.113 164.883 201.084 154.332C183.902 166.993 175.461 166.089 140.493 151.619C104.452 136.706 93.7692 167.897 85.6302 174.228C79.6012 127.684 116.679 121.274 135.67 122.982Z" fill="white"/>
<path d="M199.745 90.6918C215.645 71.4572 233.665 65.2222 250.155 65.9457C267.212 66.6941 282.01 74.8468 290.599 82.1908H290.6C290.692 82.2691 290.783 82.3476 290.874 82.4261L287.708 86.0785L292.204 87.1947C289.087 99.7617 284.7 119.02 280.451 136.962C276.253 154.684 272.125 171.416 269.588 178.392L268.667 180.924L266.045 181.548C231.215 189.828 209.177 173.535 199.786 161.333C192.536 166.072 185.831 168.595 177.197 168.143C167.557 167.638 155.893 163.403 138.582 156.24C130.232 152.784 123.727 152.149 118.599 152.915C113.482 153.68 109.33 155.9 105.771 158.822C102.157 161.788 99.2256 165.413 96.5552 168.944C95.2774 170.633 93.9479 172.451 92.7534 173.947C91.5681 175.431 90.2077 177.001 88.6997 178.174L81.7954 183.545L80.6714 174.87C79.079 162.577 80.2841 152.54 83.6099 144.445C86.9504 136.314 92.3087 130.444 98.5083 126.341C109.284 119.21 122.485 117.465 132.372 117.778C140.927 97.6897 154.064 88.4742 167.74 85.9252C179.725 83.6914 191.425 86.7095 199.745 90.6918ZM249.716 75.9359C235.777 75.3243 219.732 80.6771 205.073 100.073L202.385 103.628L198.545 101.365C191.662 97.3074 180.516 93.7154 169.572 95.7552C159.071 97.7125 147.785 105.031 140.349 124.746L139.007 128.302L135.222 127.962C126.319 127.161 113.601 128.343 104.027 134.68C99.3368 137.784 95.3693 142.137 92.8599 148.245C91.4169 151.758 90.4176 155.948 90.0913 160.944C92.589 157.753 95.6464 154.195 99.4263 151.092C104.06 147.289 109.845 144.112 117.122 143.025C124.388 141.939 132.734 142.998 142.405 146.999C160.061 154.305 170.102 157.757 177.72 158.157C184.682 158.521 189.94 156.333 198.119 150.307L202.639 146.976L205.425 151.852C210.47 160.68 228.579 178.936 261.049 172.407C263.401 164.945 266.949 150.58 270.72 134.658C274.602 118.269 278.669 100.465 281.734 87.892C274.184 82.182 262.579 76.5003 249.716 75.9359Z" fill="#333542"/>
<path d="M408.446 192.444C399.054 189.133 388.881 199.532 387.879 217.142C406.049 191.893 449.339 215.3 442.305 210.775C427.781 201.431 420.187 196.582 408.446 192.444Z" fill="#333542"/>
<path d="M88.2709 192.444C97.6634 189.133 107.836 199.532 108.838 217.142C90.6676 191.893 47.3784 215.3 54.412 210.775C68.936 201.431 76.5302 196.582 88.2709 192.444Z" fill="#333542"/>
<rect x="230.318" y="348.657" width="34.3196" height="103.984" rx="17.1598" fill="#D4217F"/>
<ellipse cx="214.775" cy="330.676" rx="37.9968" ry="60.8276" fill="white"/>
<ellipse cx="278.666" cy="339.401" rx="35.4637" ry="52.1024" fill="white"/>
<ellipse cx="247.478" cy="272.356" rx="35.4637" ry="52.1024" fill="white"/>
<path d="M278.405 317.546C280.89 317.546 282.905 319.561 282.905 322.046C282.905 324.532 280.89 326.546 278.405 326.546C267.036 326.546 260.063 331.653 256.212 338.676C252.216 345.965 251.403 355.718 253.576 364.764C255.757 373.846 260.723 381.358 267.281 384.832C273.509 388.13 282.266 388.348 293.632 380.628C295.688 379.231 298.487 379.766 299.883 381.822C301.28 383.878 300.746 386.676 298.69 388.073C285.29 397.174 272.942 398.015 263.069 392.786C253.525 387.731 247.394 377.565 244.825 366.866C242.247 356.131 243.03 343.999 248.321 334.349C253.757 324.433 263.762 317.546 278.405 317.546Z" fill="#333542"/>
<path d="M215.973 317.546C213.488 317.546 211.473 319.561 211.473 322.046C211.473 324.532 213.488 326.546 215.973 326.546C227.342 326.546 234.315 331.653 238.165 338.676C242.162 345.965 242.975 355.718 240.802 364.764C238.621 373.846 233.655 381.358 227.097 384.832C220.869 388.13 212.111 388.348 200.745 380.628C198.69 379.231 195.891 379.766 194.494 381.822C193.098 383.878 193.632 386.676 195.688 388.073C209.087 397.174 221.435 398.015 231.309 392.786C240.852 387.731 246.983 377.565 249.553 366.866C252.131 356.131 251.348 343.999 246.057 334.349C240.62 324.433 230.616 317.546 215.973 317.546Z" fill="#333542"/>
<path d="M288.202 91.8177C287.536 91.7622 280.306 86.9031 280.306 86.9031C272.613 116.251 255.006 173.132 259.223 172.676C263.44 172.22 272.366 170.372 277.558 168.814L296.194 88.8763C296.194 88.8763 288.868 91.8732 288.202 91.8177Z" fill="white"/>
<path d="M188.206 241.531C183.55 184.456 145.463 188.712 127.001 197.974C126.407 198.561 127.001 200.071 127.211 200.444C127.488 200.935 135.776 201.946 140.282 202.322C133.268 232.086 166.451 231.32 172.06 220.316C178.444 224.634 187.62 242.513 188.206 241.531Z" fill="#333542"/>
<path d="M308.511 241.531C313.167 184.456 351.254 188.712 369.716 197.974C370.31 198.561 369.716 200.071 369.506 200.444C369.229 200.935 360.941 201.946 356.435 202.322C363.449 232.086 330.266 231.32 324.657 220.316C318.273 224.634 309.097 242.513 308.511 241.531Z" fill="#333542"/>
<circle cx="340.385" cy="210.276" r="10.3638" fill="#D4217F"/>
<circle cx="342.985" cy="209.336" r="3.74356" fill="white"/>
</svg>
